<?xml version="1.0" encoding="utf-8"?>
<!-- Generator: Adobe Illustrator 17.1.0, SVG Export Plug-In . SVG Version: 6.00 Build 0)  -->
<!DOCTYPE svg PUBLIC "-//W3C//DTD SVG 1.1//EN" "http://www.w3.org/Graphics/SVG/1.1/DTD/svg11.dtd">
<svg version="1.1" id="Layer_1" xmlns="http://www.w3.org/2000/svg" xmlns:xlink="http://www.w3.org/1999/xlink" x="0px" y="0px"
	 width="174px" height="19px" viewBox="0 0 174 19" style="enable-background:new 0 0 174 19;" xml:space="preserve">
<style type="text/css">
	.st0{fill:#FFFFFF;}
</style>
<g>
	<g>
		<path class="st0" d="M51.3,15.2h-5V4h4.5c0.8,0,1.4,0.1,2,0.3c0.6,0.2,1,0.4,1.3,0.7c0.5,0.6,0.8,1.2,0.8,2c0,0.9-0.3,1.5-0.9,2
			c-0.2,0.2-0.3,0.2-0.4,0.3c-0.1,0-0.2,0.1-0.4,0.2c0.7,0.2,1.3,0.5,1.7,0.9c0.4,0.5,0.6,1.1,0.6,1.8c0,0.8-0.3,1.5-0.8,2.1
			C54,14.9,52.9,15.2,51.3,15.2z M48.9,8.5h1.2c0.7,0,1.2-0.1,1.6-0.2c0.3-0.2,0.5-0.5,0.5-1c0-0.5-0.2-0.8-0.5-1
			c-0.3-0.2-0.9-0.2-1.6-0.2h-1.2V8.5z M48.9,13.1h1.8c0.7,0,1.3-0.1,1.6-0.3c0.4-0.2,0.5-0.5,0.5-1c0-0.5-0.2-0.9-0.6-1
			c-0.4-0.2-1-0.2-1.9-0.2h-1.5V13.1z"/>
		<path class="st0" d="M69.2,7.7c0,1.8-0.7,3-2.2,3.5l2.9,4h-3.1l-2.5-3.6h-1.8v3.6h-2.6V4h4.3c1.8,0,3.1,0.3,3.8,0.9
			C68.9,5.5,69.2,6.4,69.2,7.7z M66.2,9c0.3-0.3,0.5-0.7,0.5-1.3s-0.2-1-0.5-1.2c-0.3-0.2-0.9-0.3-1.7-0.3h-1.9v3.3h1.9
			C65.2,9.5,65.8,9.3,66.2,9z"/>
		<path class="st0" d="M75.1,4h2.6v11.2h-2.6V4z"/>
		<path class="st0" d="M92.5,5.4c1.1,1,1.6,2.3,1.6,4.1c0,1.7-0.5,3.1-1.6,4.2c-1.1,1-2.7,1.5-4.9,1.5h-3.9V4h4
			C89.9,4,91.4,4.5,92.5,5.4z M90.7,12.1c0.6-0.6,0.9-1.4,0.9-2.5c0-1.1-0.3-2-0.9-2.6c-0.6-0.6-1.6-0.9-2.9-0.9h-1.4V13H88
			C89.1,13,90,12.7,90.7,12.1z"/>
		<path class="st0" d="M106.1,9.5h2.6v4c-1.1,1.2-2.7,1.9-4.7,1.9c-1.7,0-3.1-0.5-4.2-1.6c-1.1-1.1-1.7-2.5-1.7-4.1
			c0-1.7,0.6-3.1,1.7-4.2c1.2-1.1,2.6-1.7,4.2-1.7c1.6,0,3.1,0.5,4.3,1.6l-1.3,1.9c-0.5-0.4-1-0.7-1.4-0.9c-0.4-0.2-0.9-0.2-1.4-0.2
			c-1,0-1.8,0.3-2.5,1c-0.7,0.6-1,1.5-1,2.6c0,1.1,0.3,1.9,1,2.6c0.6,0.6,1.4,1,2.3,1c0.9,0,1.6-0.2,2.2-0.5V9.5z"/>
		<path class="st0" d="M122.2,4v2.2h-5.7v2.3h5.1v2.1h-5.1V13h5.9v2.2h-8.4V4H122.2z"/>
		<path class="st0" d="M128.1,14.9c-0.3-0.3-0.4-0.6-0.4-1c0-0.4,0.1-0.7,0.4-1c0.3-0.3,0.6-0.4,1-0.4c0.4,0,0.7,0.1,1,0.4
			c0.3,0.3,0.4,0.6,0.4,1c0,0.4-0.1,0.7-0.4,1c-0.3,0.3-0.6,0.4-1,0.4C128.7,15.4,128.4,15.2,128.1,14.9z"/>
		<path class="st0" d="M143.9,4h2.6v11.2h-2.6l-5.5-7v7h-2.6V4h2.4l5.6,7.2V4z"/>
		<path class="st0" d="M160.2,4v2.2h-5.7v2.3h5.1v2.1h-5.1V13h5.9v2.2h-8.4V4H160.2z"/>
		<path class="st0" d="M170.8,6.1v9.1h-2.6V6.1H165V4h9v2.2H170.8z"/>
	</g>
	<path class="st0" d="M25.6,19h3v-6.3l-3-3.3V19z M31.3,15.7V19h3L31.3,15.7z M19.9,19h3V6.3l-3-3.3V19z M0,19h4L14.2,7.8V19h3V0
		L0,19z"/>
</g>
</svg>
